<svg id="new" xmlns="http://www.w3.org/2000/svg" viewBox="0 0 377.32 112.85"><defs><style>.cls-1,.cls-2{fill:#231f20;}.cls-2,.cls-4{fill-rule:evenodd;}.cls-3,.cls-4{fill:#4764af;}.cls-5,.cls-6{fill:#fff;}.cls-6{stroke:#231f20;stroke-miterlimit:3.86;stroke-width:0.25px;}</style></defs><title>formkit_logo_2019</title><path class="cls-1" d="M21.23,14.37H13.05v-2c0-4.15,0-6.39,5.49-6.2H21V0H15.73C6.92,0,5,3.39,5,11.43v2.94H.28V20.5H5V47.9h8.05V20.5h8.18V14.37Z"/><path class="cls-2" d="M40.36,14c-14,0-15.78,4.15-15.78,17.18s1.79,17.12,15.78,17.12,15.77-4.15,15.77-17.12S54.35,14,40.36,14Zm0,6.13c7.15,0,7.73,2,7.73,11.11s-.58,10.92-7.73,10.92-7.73-2-7.73-10.92.58-11.11,7.73-11.11Z"/><path class="cls-1" d="M62.62,14.37V47.9h8V27.21c-.12-4.34,1.28-7.09,6.07-7.09,3.77,0,4.09,2,4.09,5.36v1.73h7.54V24.53C88.36,18.2,86.63,14,79.54,14c-3.89,0-7.34,1.08-8.94,4.79h-.32l.19-4.41Z"/><path class="cls-1" d="M94.08,14.37V47.9h8V29c0-5.94,1.28-8.88,7.79-8.88,4.41,0,5.43,1.66,5.62,5.87V47.9h8V29c0-5.94,1.28-8.88,7.79-8.88,4.41,0,5.43,1.66,5.62,5.87V47.9h8.05V25.23C145.05,17,142.18,14,133.49,14c-4.47,0-9.07,1.27-10.6,5.94h-.26c-.89-4.86-5.75-5.94-10-5.94s-8.75,1-10.54,5.24h-.26V14.37Z"/><polygon class="cls-3" points="161.5 0 153.45 0 153.45 47.9 161.5 47.9 161.5 32.89 163.48 32.89 174.66 47.9 184.36 47.9 170.06 30.15 181.94 14.37 172.87 14.37 163.48 27.4 161.5 27.4 161.5 0 161.5 0"/><path class="cls-4" d="M195.81,14.37h-8.05V47.9h8.05V14.37Zm0-14.37h-8.05V6.83h8.05V0Z"/><path class="cls-3" d="M199.29,20.5h4.21V37.75c0,8.49,2.69,10.54,11.5,10.54s11.24-3.07,11.11-13.23H219c0,3.52.51,7.09-4,7.09-3.39,0-3.39-1.4-3.45-4.47V20.5h12.84V14.37H211.55V6.77H203.5v7.6h-4.21V20.5Z"/><polygon class="cls-1" points="244.88 39.15 236.83 39.15 236.83 47.9 244.88 47.9 244.88 39.15 244.88 39.15"/><path class="cls-1" d="M274.57,35.13c0,5.87-.64,7-7.22,7-7.09,0-7-2.61-7-11,0-8.62.06-11,7-11,5.62,0,7.22.89,7.22,6h8c0-10.6-5.3-12.13-15.26-12.13-13.16,0-15,5.43-15,17.18,0,13.54,2.68,17.12,15,17.12,11.3,0,15.26-2.17,15.26-13.16Z"/><path class="cls-2" d="M303.46,14c-14,0-15.78,4.15-15.78,17.18s1.79,17.12,15.78,17.12,15.77-4.15,15.77-17.12S317.44,14,303.46,14Zm0,6.13c7.15,0,7.73,2,7.73,11.11s-.58,10.92-7.73,10.92-7.73-2-7.73-10.92.57-11.11,7.73-11.11Z"/><path class="cls-1" d="M326.35,14.37V47.9h8V29c0-5.94,1.28-8.88,7.79-8.88,4.41,0,5.43,1.66,5.62,5.87V47.9h8.05V29c0-5.94,1.28-8.88,7.79-8.88,4.41,0,5.43,1.66,5.62,5.87V47.9h8.05V25.23C377.32,17,374.45,14,365.76,14c-4.47,0-9.07,1.27-10.6,5.94h-.26c-.89-4.86-5.74-5.94-10-5.94s-8.75,1-10.54,5.24h-.25V14.37Z"/><path class="cls-1" d="M32.81,25.19a4.86,4.86,0,0,1,.89-2.76c1-1.38,1.84-1.49,1.84-1.49l-1.2-3.58-3.05.7-2.68,2.19,4.2,4.94Z"/><rect class="cls-3" y="55.82" width="377.32" height="57.03"/><path class="cls-5" d="M63.25,81.29H75.43v4.34H63.25V96.87H58V69.52H76.09v4.35H63.25Z"/><path class="cls-5" d="M94.54,79.07c1.43,1.36,2,3.41,2,7.75,0,8.53-1.55,10.29-9,10.29-4.51,0-6.68-.69-7.83-2.58-.94-1.52-1.23-3.28-1.23-8,0-4.18.58-6.24,2-7.55s3.08-1.56,7.14-1.56C91.5,77.47,93.27,77.88,94.54,79.07Zm-11.4,8c0,5.62.53,6.4,4.26,6.4s4.39-.82,4.39-6.61c0-5-.57-5.82-4.35-5.82S83.14,81.86,83.14,87.11Z"/><path class="cls-5" d="M105,77.72l-.29,2.67.09,0c1.23-2.22,2.58-3,5.2-3a5.06,5.06,0,0,1,3.86,1.44c.9,1,1.19,2.25,1.19,4.88v1.39h-4.35a9,9,0,0,0,0-1.06c0-2.34-.53-3-2.38-3a3.07,3.07,0,0,0-3,1.72,7,7,0,0,0-.33,2.79V96.87h-4.63V77.72Z"/><path class="cls-5" d="M122.46,77.72l-.13,3h.09c1-2.25,2.7-3.2,5.82-3.2,3.44,0,5.41,1.23,5.78,3.57h.08c.94-2.5,2.79-3.57,6.07-3.57,2.75,0,4.76.82,5.7,2.34a8.45,8.45,0,0,1,.86,4.39V96.87H142.1V85.18a7.49,7.49,0,0,0-.41-2.74c-.37-.78-1.32-1.19-2.83-1.19-1.93,0-3.41.61-3.9,1.64a6.56,6.56,0,0,0-.41,2.78v11.2h-4.63V85a6.84,6.84,0,0,0-.33-2.62c-.37-.74-1.39-1.15-2.87-1.15-3,0-4.26,1.27-4.26,4.51V96.87h-4.64V77.72Z"/><path class="cls-5" d="M168.21,96.87h-4.63l.25-3.28-.09,0c-.94,2.5-2.78,3.56-6.15,3.56-4.46,0-6.43-2-6.43-6.52V77.72h4.63V89.49a5.94,5.94,0,0,0,.37,2.66c.45.86,1.35,1.23,3,1.23,2.09,0,3.32-.61,4-1.92a7.39,7.39,0,0,0,.41-3.28V77.72h4.63Z"/><path class="cls-5" d="M177.36,96.87h-4.64V69.52h4.64Z"/><path class="cls-5" d="M182,83.26c0-2,.2-2.92.82-3.78,1-1.47,3-2,7.3-2,6.72,0,8.69,1.56,8.69,6.89V96.87h-4.64l.21-2.63h-.12c-1,2.22-2.42,2.87-6.07,2.87-5.13,0-7-1.55-7-5.94s1.93-6,7.05-6c3.73,0,5,.49,5.82,2.22h.08V84.28c0-3-.77-3.77-3.89-3.77-2.91,0-3.53.45-3.61,2.75Zm3.93,7.66c0,2.38.74,2.91,4,2.91s4.27-.65,4.27-2.78-.95-2.79-4.27-2.79S185.88,88.79,185.88,90.92Z"/><path class="cls-5" d="M207.86,77.72l-.29,2.67.08,0c1.23-2.22,2.59-3,5.21-3a5.06,5.06,0,0,1,3.86,1.44c.9,1,1.18,2.25,1.18,4.88v1.39h-4.34a9,9,0,0,0,0-1.06c0-2.34-.53-3-2.38-3a3.07,3.07,0,0,0-3,1.72,7,7,0,0,0-.33,2.79V96.87h-4.63V77.72Z"/><path class="cls-5" d="M232.05,98.06c-1.4,5.74-3,7.29-7.67,7.29a10.79,10.79,0,0,1-1.6-.08v-3.36l.86,0a2.74,2.74,0,0,0,2.51-1.06,10.45,10.45,0,0,0,1.35-4h-2.34l-6.27-19.15h4.92l2.38,8.12,1.23,4.06c.36,1.39.73,2.62,1.1,4.06h.13c.2-1.07.45-2.18.69-3.24.09-.45.45-2,1.07-4.88l1.89-8.12h4.79Z"/><path class="cls-5" d="M254.85,80.67h2.46l9.06-11.15h6.47L261.77,82.89l12.22,14h-6.64l-10-11.69h-2.46V96.87H249.6V69.52h5.25Z"/><path class="cls-5" d="M281,73.46h-4.63V69.52H281Zm0,23.41h-4.63V77.72H281Z"/><path class="cls-5" d="M297.89,81.21H290.6V90.8c0,2.21.36,2.75,2,2.75,1.81,0,2.26-.66,2.26-3.28a7,7,0,0,0,0-.78h3.89v1.1c0,2.67-.24,3.65-1,4.72-1,1.27-2.58,1.8-5.54,1.8-3.2,0-4.79-.69-5.66-2.37C286,94,286,93.3,286,91.46V81.21h-2.5V77.72H286V73.46h4.64v4.26h7.29Z"/><path class="cls-5" d="M313.35,83c-.2-2.09-.53-2.3-3.77-2.3s-3.9.33-3.9,2.3c0,1.19.33,1.8,1.07,2a18.17,18.17,0,0,0,3.85.29c4.18.2,5.21.41,6.23,1.18s1.73,2.38,1.73,4.47a5.84,5.84,0,0,1-1.77,4.64c-1.35,1.1-3.28,1.51-7.25,1.51-5.29,0-7.47-.86-8.2-3.32a7.4,7.4,0,0,1-.33-3h4.76v.57c0,2,.69,2.46,4,2.46s4.19-.49,4.19-2.54c0-1.84-.58-2.33-2.75-2.38-8.41-.08-10.09-1-10.09-5.78,0-4.51,1.81-5.7,8.61-5.7,6.4,0,8.12,1.15,8.12,5.5Z"/><polygon class="cls-6" points="43 78.38 33.16 88.22 23.31 78.38 43 78.38"/></svg>