<?xml version="1.0" encoding="utf-8"?>
<!-- Generator: Adobe Illustrator 23.0.3, SVG Export Plug-In . SVG Version: 6.00 Build 0)  -->
<svg version="1.1" id="Layer_2" xmlns="http://www.w3.org/2000/svg" xmlns:xlink="http://www.w3.org/1999/xlink" x="0px" y="0px"
	 viewBox="0 0 748.59 196.54" style="enable-background:new 0 0 748.59 196.54;" xml:space="preserve">
<style type="text/css">
	.st0{fill:#060000;}
	.st1{fill:#57ABA6;}
	.st2{fill:#231F20;}
	.st3{fill:#7D797A;}
</style>
<path class="st0" d="M137.73,136.76h11.16V20.45c-19.71,2.09-25.29,19.51-26.16,36.74h-3.17V17.29h84.8V57.2h-3.17
	c-0.87-17.24-6.45-34.65-26.16-36.74v116.31h11.16v3.17h-48.47V136.76"/>
<path class="st1" d="M92.54,50.47c0-5,2.72-10.3,8.83-10.3c7.2,0,10.46,5.9,10.46,13.93c0,8.48-5.84,14.98-10.86,18.77
	C96.61,65.3,92.54,57.43,92.54,50.47 M151.99,109.18c-1.91,7.89-4.22,12.6-9.11,12.6c-6.93,0-17.63-7.72-22.05-15.16l-1.24-2.12
	c2.21-4.54,8.56-17.13,11.6-17.13c0.96,0,1.38,0.45,1.38,1.51c0,0.91-0.27,1.97-0.27,3.48c0,3.02,1.5,8.32,8.42,8.32
	c4.89,0,9.23-4.08,9.23-10.59c0-6.81-4.89-11.2-10.46-11.2c-9.41,0-17.55,15.16-21.69,23.03c-5.7-9.53-10.99-17.85-15.75-26.6
	c7.2-5.28,12.99-12.06,12.99-21.87c0-10.71-7.15-17.82-16.92-17.82c-11.44,0-21.12,9.37-21.12,22.49c0,10.11,3.96,19.01,8.19,27.16
	c-9.82,7.11-21.03,18.15-21.03,32.42c0,12.6,9.43,24.31,21.03,24.31c10.49,0,18.25-8.56,24.11-17.32
	c5.04,8.01,14.34,12.45,24.02,12.45c14.71,0,20.16-21.57,21.11-27.35L151.99,109.18z M97.16,129.4c-8.99,0-19.07-18.38-19.07-27.33
	c0-7.41,4.9-11.8,8.17-14.37c5.86,10.14,14.71,24.69,21.11,34.41C104.65,126.36,101.93,129.4,97.16,129.4"/>
<path class="st0" d="M0,139.92h43.74v-3.16h-9.23V82.82h4.35c17.77,0,46.32-1.41,46.32-32.77c0-27.34-22.81-32.77-46.85-32.77H0
	v3.17h8.37v116.31H0V139.92z M34.51,20.45h2.96c16.38,0,19.51,8.18,19.51,29.6c0,21.07-2.44,29.6-19.51,29.6h-2.96V20.45z"/>
<path class="st0" d="M190.67,135.8v3.24h0.56v-1.26h0.45c0.31,0,0.52,0.04,0.64,0.1c0.21,0.12,0.31,0.36,0.31,0.73v0.25l0.01,0.1
	l0.01,0.03l0.01,0.03h0.55l-0.02-0.04c-0.01-0.03-0.02-0.08-0.03-0.17c0-0.09-0.01-0.17-0.01-0.24v-0.24c0-0.16-0.06-0.33-0.18-0.5
	c-0.12-0.17-0.3-0.28-0.56-0.32c0.2-0.03,0.36-0.08,0.47-0.16c0.21-0.14,0.32-0.35,0.32-0.64c0-0.41-0.17-0.68-0.51-0.82
	c-0.19-0.08-0.49-0.12-0.89-0.12H190.67z M192.64,136.8c0,0.24-0.11,0.41-0.34,0.5c-0.12,0.05-0.31,0.07-0.55,0.07h-0.52v-1.15h0.49
	c0.32,0,0.56,0.04,0.7,0.12C192.57,136.41,192.64,136.57,192.64,136.8 M194.82,137.44c0-0.82-0.29-1.51-0.87-2.09
	c-0.58-0.57-1.28-0.86-2.1-0.86c-0.81,0-1.51,0.29-2.08,0.86c-0.58,0.58-0.87,1.27-0.87,2.09c0,0.82,0.29,1.52,0.86,2.1
	c0.57,0.58,1.27,0.87,2.09,0.87c0.82,0,1.52-0.29,2.1-0.87C194.53,138.95,194.82,138.26,194.82,137.44 M191.86,134.9
	c0.7,0,1.31,0.25,1.8,0.75c0.49,0.5,0.74,1.09,0.74,1.79c0,0.71-0.25,1.31-0.74,1.8c-0.5,0.5-1.1,0.75-1.8,0.75
	c-0.71,0-1.31-0.25-1.8-0.75c-0.49-0.5-0.74-1.1-0.74-1.8c0-0.7,0.25-1.3,0.74-1.79C190.56,135.15,191.16,134.9,191.86,134.9"/>
<path class="st1" d="M7.22,3.97c0-0.95-0.71-1.53-1.66-1.53H2.99V5.5h2.56C6.5,5.5,7.22,4.9,7.22,3.97 M0.58,11.64V0.32h5.29
	c2.46,0,3.8,1.66,3.8,3.65c0,1.97-1.36,3.65-3.8,3.65H2.99v4.02H0.58z"/>
<path class="st1" d="M16.33,11.64V6.65c0-1.14-0.59-1.49-1.53-1.49c-0.83,0-1.49,0.48-1.87,0.97v5.51h-2.15V0.32h2.15v4.19
	c0.53-0.63,1.54-1.27,2.89-1.27c1.8,0,2.66,0.98,2.66,2.58v5.82H16.33z"/>
<path class="st1" d="M25.2,9.67V8.65c-0.36-0.47-1.03-0.71-1.73-0.71c-0.85,0-1.54,0.44-1.54,1.24c0,0.77,0.69,1.21,1.54,1.21
	C24.17,10.38,24.85,10.15,25.2,9.67 M25.2,11.64v-0.85c-0.56,0.66-1.53,1.05-2.6,1.05c-1.31,0-2.85-0.88-2.85-2.72
	c0-1.92,1.54-2.65,2.85-2.65c1.09,0,2.05,0.36,2.6,1v-1.1c0-0.83-0.71-1.37-1.8-1.37c-0.88,0-1.7,0.32-2.39,0.97L20.2,4.53
	c1-0.88,2.29-1.29,3.58-1.29c1.87,0,3.58,0.75,3.58,3.1v5.29H25.2z"/>
<path class="st1" d="M29.16,11.64V3.45h2.15v1.12c0.58-0.73,1.59-1.32,2.61-1.32v2.1c-0.15-0.03-0.36-0.05-0.59-0.05
	c-0.71,0-1.66,0.41-2.02,0.93v5.41H29.16z"/>
<path class="st1" d="M45.09,11.64V6.47c0-0.76-0.34-1.31-1.22-1.31c-0.76,0-1.39,0.51-1.7,0.95v5.53H40V6.47
	c0-0.76-0.34-1.31-1.22-1.31c-0.75,0-1.37,0.51-1.7,0.97v5.51h-2.15V3.45h2.15v1.07c0.34-0.49,1.42-1.27,2.68-1.27
	c1.21,0,1.97,0.56,2.27,1.49c0.47-0.75,1.56-1.49,2.82-1.49c1.51,0,2.41,0.8,2.41,2.48v5.92H45.09z"/>
<path class="st1" d="M53.97,9.67V8.65c-0.36-0.47-1.03-0.71-1.73-0.71c-0.85,0-1.54,0.44-1.54,1.24c0,0.77,0.69,1.21,1.54,1.21
	C52.93,10.38,53.61,10.15,53.97,9.67 M53.97,11.64v-0.85c-0.56,0.66-1.53,1.05-2.6,1.05c-1.31,0-2.85-0.88-2.85-2.72
	c0-1.92,1.54-2.65,2.85-2.65c1.09,0,2.05,0.36,2.6,1v-1.1c0-0.83-0.71-1.37-1.8-1.37c-0.88,0-1.7,0.32-2.39,0.97l-0.81-1.44
	c1-0.88,2.29-1.29,3.58-1.29c1.87,0,3.58,0.75,3.58,3.1v5.29H53.97z"/>
<path class="st1" d="M57.39,7.53c0-2.51,1.81-4.29,4.34-4.29c1.68,0,2.7,0.73,3.24,1.48l-1.41,1.32c-0.39-0.58-0.98-0.88-1.73-0.88
	c-1.31,0-2.22,0.95-2.22,2.38c0,1.42,0.92,2.39,2.22,2.39c0.75,0,1.34-0.34,1.73-0.88l1.41,1.31c-0.54,0.76-1.56,1.49-3.24,1.49
	C59.21,11.84,57.39,10.06,57.39,7.53"/>
<path class="st1" d="M66.08,12.91c0.19,0.08,0.47,0.14,0.68,0.14c0.56,0,0.93-0.15,1.14-0.59l0.31-0.69l-3.33-8.31h2.31l2.14,5.7
	l2.14-5.7h2.32l-3.85,9.53c-0.61,1.54-1.7,1.95-3.1,1.99c-0.26,0-0.8-0.05-1.07-0.12L66.08,12.91z"/>
<path class="st1" d="M83.34,9.67V8.65c-0.36-0.47-1.03-0.71-1.73-0.71c-0.85,0-1.54,0.44-1.54,1.24c0,0.77,0.7,1.21,1.54,1.21
	C82.31,10.38,82.99,10.15,83.34,9.67 M83.34,11.64v-0.85c-0.56,0.66-1.53,1.05-2.6,1.05c-1.31,0-2.85-0.88-2.85-2.72
	c0-1.92,1.54-2.65,2.85-2.65c1.09,0,2.05,0.36,2.6,1v-1.1c0-0.83-0.71-1.37-1.8-1.37c-0.88,0-1.7,0.32-2.39,0.97l-0.81-1.44
	c1-0.88,2.29-1.29,3.58-1.29c1.87,0,3.58,0.75,3.58,3.1v5.29H83.34z"/>
<path class="st1" d="M92.83,11.64V6.69c0-1.14-0.59-1.53-1.51-1.53c-0.85,0-1.51,0.48-1.87,0.97v5.51H87.3V3.45h2.16v1.07
	c0.52-0.63,1.53-1.27,2.87-1.27c1.8,0,2.66,1.02,2.66,2.61v5.78H92.83z"/>
<path class="st1" d="M102.41,8.99v-2.9c-0.35-0.54-1.14-0.93-1.87-0.93c-1.22,0-2.07,0.97-2.07,2.39c0,1.41,0.85,2.38,2.07,2.38
	C101.28,9.93,102.06,9.54,102.41,8.99 M102.41,11.64v-1.05c-0.64,0.81-1.54,1.26-2.53,1.26c-2.07,0-3.63-1.56-3.63-4.29
	c0-2.68,1.54-4.31,3.63-4.31c0.97,0,1.88,0.42,2.53,1.26V0.32h2.17v11.31H102.41z"/>
<polygon class="st1" points="113.05,11.64 113.05,2.44 109.75,2.44 109.75,0.32 118.77,0.32 118.77,2.44 115.48,2.44 115.48,11.64 
	"/>
<path class="st1" d="M125.48,11.64V6.65c0-1.14-0.59-1.49-1.53-1.49c-0.83,0-1.49,0.48-1.87,0.97v5.51h-2.15V0.32h2.15v4.19
	c0.53-0.63,1.54-1.27,2.89-1.27c1.8,0,2.66,0.98,2.66,2.58v5.82H125.48z"/>
<path class="st1" d="M133.15,4.95c-1.34,0-1.92,1-2.02,1.82h4.04C135.11,5.99,134.57,4.95,133.15,4.95 M128.91,7.53
	c0-2.38,1.75-4.29,4.24-4.29c2.44,0,4.11,1.83,4.11,4.51v0.48h-6.09c0.14,1.03,0.96,1.9,2.36,1.9c0.69,0,1.66-0.3,2.19-0.81
	l0.95,1.39c-0.81,0.75-2.1,1.14-3.38,1.14C130.79,11.84,128.91,10.16,128.91,7.53"/>
<path class="st1" d="M138.48,11.64V3.45h2.15v1.12c0.58-0.73,1.59-1.32,2.61-1.32v2.1c-0.15-0.03-0.35-0.05-0.59-0.05
	c-0.71,0-1.66,0.41-2.02,0.93v5.41H138.48z"/>
<path class="st1" d="M149.16,9.67V8.65c-0.36-0.47-1.03-0.71-1.73-0.71c-0.85,0-1.54,0.44-1.54,1.24c0,0.77,0.7,1.21,1.54,1.21
	C148.13,10.38,148.81,10.15,149.16,9.67 M149.16,11.64v-0.85c-0.56,0.66-1.53,1.05-2.59,1.05c-1.31,0-2.85-0.88-2.85-2.72
	c0-1.92,1.54-2.65,2.85-2.65c1.09,0,2.05,0.36,2.59,1v-1.1c0-0.83-0.71-1.37-1.8-1.37c-0.88,0-1.7,0.32-2.39,0.97l-0.82-1.44
	c1-0.88,2.29-1.29,3.58-1.29c1.86,0,3.58,0.75,3.58,3.1v5.29H149.16z"/>
<path class="st1" d="M159.19,7.53c0-1.41-0.83-2.38-2.07-2.38c-0.69,0-1.49,0.41-1.85,0.93v2.9c0.36,0.51,1.15,0.93,1.85,0.93
	C158.36,9.92,159.19,8.95,159.19,7.53 M155.27,10.58v4.17h-2.16V3.44h2.16v1.03c0.63-0.8,1.52-1.24,2.53-1.24
	c2.11,0,3.63,1.56,3.63,4.29c0,2.73-1.52,4.31-3.63,4.31C156.83,11.84,155.93,11.43,155.27,10.58"/>
<path class="st1" d="M166.38,4.95c-1.34,0-1.92,1-2.02,1.82h4.04C168.35,5.99,167.81,4.95,166.38,4.95 M162.14,7.53
	c0-2.38,1.75-4.29,4.24-4.29c2.44,0,4.11,1.83,4.11,4.51v0.48h-6.09c0.13,1.03,0.97,1.9,2.36,1.9c0.69,0,1.66-0.3,2.19-0.81
	l0.95,1.39c-0.81,0.75-2.1,1.14-3.38,1.14C164.03,11.84,162.14,10.16,162.14,7.53"/>
<path class="st1" d="M177.25,11.64v-1.03c-0.56,0.63-1.54,1.24-2.88,1.24c-1.8,0-2.65-0.98-2.65-2.58V3.45h2.16v4.97
	c0,1.14,0.59,1.51,1.51,1.51c0.83,0,1.5-0.46,1.87-0.93V3.45h2.15v8.19H177.25"/>
<path class="st1" d="M181.63,9.6V5.32h-1.35V3.44h1.35V1.2h2.17v2.24h1.66v1.88h-1.66v3.7c0,0.51,0.27,0.9,0.75,0.9
	c0.32,0,0.63-0.12,0.75-0.24l0.46,1.63c-0.33,0.29-0.9,0.53-1.8,0.53C182.44,11.84,181.63,11.06,181.63,9.6"/>
<path class="st1" d="M186.6,3.44h2.16v8.19h-2.16V3.44z M186.38,1.27c0-0.71,0.59-1.27,1.29-1.27c0.71,0,1.29,0.56,1.29,1.27
	c0,0.71-0.58,1.29-1.29,1.29C186.97,2.56,186.38,1.99,186.38,1.27"/>
<path class="st1" d="M190.03,7.53c0-2.51,1.81-4.29,4.34-4.29c1.68,0,2.7,0.73,3.24,1.48l-1.41,1.32c-0.39-0.58-0.98-0.88-1.73-0.88
	c-1.3,0-2.22,0.95-2.22,2.38c0,1.42,0.92,2.39,2.22,2.39c0.75,0,1.34-0.34,1.73-0.88l1.41,1.31c-0.54,0.76-1.56,1.49-3.24,1.49
	C191.84,11.84,190.03,10.06,190.03,7.53"/>
<path class="st1" d="M197.97,10.57l0.93-1.51c0.59,0.56,1.82,1.12,2.83,1.12c0.93,0,1.37-0.37,1.37-0.88c0-1.36-4.87-0.26-4.87-3.48
	c0-1.37,1.21-2.58,3.36-2.58c1.39,0,2.49,0.48,3.31,1.12l-0.86,1.48c-0.49-0.53-1.42-0.95-2.43-0.95c-0.78,0-1.29,0.36-1.29,0.81
	c0,1.22,4.85,0.2,4.85,3.51c0,1.49-1.27,2.63-3.55,2.63C200.21,11.84,198.84,11.37,197.97,10.57"/>
<g>
	<path class="st2" d="M264.12,137.73c-3.96,2.3-8.44,3.46-13.42,3.46c-5.35,0-10.1-1.31-14.25-3.94
		c-4.15-2.63-7.65-6.22-10.51-10.79c-2.86-4.56-5.05-9.98-6.57-16.25c-1.52-6.27-2.28-13.05-2.28-20.33c0-7.38,0.76-14.2,2.28-20.47
		c1.52-6.27,3.73-11.69,6.64-16.25c2.9-4.56,6.43-8.14,10.58-10.72c4.15-2.58,8.85-3.87,14.11-3.87c4.61,0,8.92,0.97,12.93,2.9
		c4.01,1.94,7.35,4.98,10.03,9.13l-6.22,6.36c-2.12-3.23-4.59-5.62-7.4-7.19c-2.81-1.57-5.79-2.35-8.92-2.35
		c-4.06,0-7.58,1.11-10.58,3.32c-3,2.21-5.49,5.26-7.47,9.13c-1.98,3.87-3.46,8.39-4.43,13.55c-0.97,5.16-1.45,10.65-1.45,16.46
		c0,5.81,0.51,11.27,1.52,16.39c1.01,5.12,2.51,9.61,4.49,13.48c1.98,3.87,4.47,6.94,7.47,9.2c2.99,2.26,6.52,3.39,10.58,3.39
		c3.5,0,6.68-0.99,9.54-2.97c2.86-1.98,5.21-4.59,7.05-7.81l6.09,6.22C271.36,132.11,268.09,135.43,264.12,137.73z"/>
	<path class="st2" d="M327.33,104.68c0,5.44-0.55,10.37-1.66,14.8c-1.11,4.43-2.68,8.25-4.7,11.48c-2.03,3.23-4.54,5.72-7.54,7.47
		c-3,1.75-6.34,2.63-10.03,2.63c-3.69,0-7.01-0.88-9.96-2.63c-2.95-1.75-5.46-4.24-7.54-7.47c-2.07-3.23-3.67-7.05-4.77-11.48
		s-1.66-9.36-1.66-14.8c0-5.44,0.53-10.42,1.59-14.94c1.06-4.52,2.6-8.39,4.63-11.62c2.03-3.23,4.54-5.72,7.54-7.47
		c2.99-1.75,6.38-2.63,10.16-2.63c3.69,0,7.03,0.88,10.03,2.63c2.99,1.75,5.51,4.24,7.54,7.47c2.03,3.23,3.6,7.1,4.7,11.62
		C326.77,94.26,327.33,99.24,327.33,104.68z M317.92,104.47c0-4.05-0.3-7.82-0.9-11.31c-0.6-3.5-1.5-6.51-2.7-9.04
		c-1.2-2.53-2.7-4.53-4.49-6c-1.8-1.47-3.94-2.21-6.43-2.21c-2.49,0-4.66,0.74-6.5,2.21c-1.85,1.47-3.34,3.47-4.49,6
		c-1.15,2.53-2.03,5.54-2.63,9.04c-0.6,3.5-0.9,7.27-0.9,11.31c0,4.05,0.3,7.77,0.9,11.18c0.6,3.4,1.47,6.39,2.63,8.97
		c1.15,2.58,2.65,4.57,4.49,6c1.84,1.43,4.01,2.14,6.5,2.14c2.49,0,4.65-0.71,6.5-2.14c1.84-1.43,3.34-3.42,4.5-6
		c1.15-2.58,2.03-5.56,2.63-8.97C317.62,112.25,317.92,108.52,317.92,104.47z"/>
	<path class="st2" d="M353.23,72.39c2.89-2.9,6.63-4.36,11.23-4.36c2.48,0,4.61,0.44,6.4,1.31c1.79,0.88,3.3,2.03,4.54,3.46
		c1.24,1.43,2.2,3.11,2.89,5.05c0.69,1.94,1.22,3.92,1.58,5.95h0.27c0.55-2.03,1.33-3.99,2.34-5.88c1.01-1.89,2.27-3.57,3.79-5.05
		c1.51-1.47,3.26-2.65,5.23-3.53c1.97-0.88,4.2-1.31,6.68-1.31c3.67,0,6.61,0.78,8.82,2.35c2.2,1.57,3.92,3.62,5.17,6.15
		c1.24,2.54,2.07,5.39,2.48,8.57c0.41,3.18,0.62,6.34,0.62,9.47v44.26h-9.13V94.58c0-2.12-0.12-4.26-0.35-6.43
		c-0.23-2.17-0.71-4.15-1.45-5.95c-0.74-1.8-1.82-3.27-3.25-4.43c-1.43-1.15-3.34-1.73-5.74-1.73c-2.21,0-4.22,0.62-6.02,1.87
		s-3.3,2.95-4.49,5.12c-1.2,2.17-2.12,4.66-2.77,7.47c-0.65,2.81-0.97,5.74-0.97,8.78v39.55H372V94.58c0-2.12-0.12-4.29-0.34-6.5
		c-0.23-2.21-0.69-4.22-1.38-6.02c-0.69-1.8-1.74-3.25-3.16-4.36s-3.28-1.66-5.57-1.66c-2.29,0-4.31,0.62-6.05,1.87
		s-3.23,2.95-4.47,5.12c-1.24,2.17-2.18,4.66-2.82,7.47c-0.64,2.81-0.96,5.74-0.96,8.78v39.55h-9.13V87.53
		c0-1.47-0.02-3.06-0.07-4.77c-0.05-1.71-0.09-3.36-0.14-4.98c-0.05-1.61-0.09-3.09-0.14-4.43c-0.05-1.34-0.12-2.37-0.21-3.11h8.99
		c0.18,1.75,0.32,3.87,0.42,6.36c0.09,2.49,0.14,4.84,0.14,7.05h0.28C348.39,79.05,350.34,75.29,353.23,72.39z"/>
	<path class="st2" d="M445.62,72.39c2.89-2.9,6.63-4.36,11.23-4.36c2.48,0,4.61,0.44,6.4,1.31c1.79,0.88,3.3,2.03,4.54,3.46
		c1.24,1.43,2.2,3.11,2.89,5.05c0.69,1.94,1.22,3.92,1.58,5.95h0.27c0.55-2.03,1.33-3.99,2.34-5.88c1.01-1.89,2.27-3.57,3.79-5.05
		c1.51-1.47,3.26-2.65,5.23-3.53c1.97-0.88,4.2-1.31,6.68-1.31c3.67,0,6.61,0.78,8.82,2.35c2.2,1.57,3.92,3.62,5.17,6.15
		c1.24,2.54,2.07,5.39,2.48,8.57c0.41,3.18,0.62,6.34,0.62,9.47v44.26h-9.13V94.58c0-2.12-0.12-4.26-0.35-6.43
		c-0.23-2.17-0.71-4.15-1.45-5.95c-0.74-1.8-1.82-3.27-3.25-4.43c-1.43-1.15-3.34-1.73-5.74-1.73c-2.21,0-4.22,0.62-6.02,1.87
		s-3.3,2.95-4.49,5.12c-1.2,2.17-2.12,4.66-2.77,7.47c-0.65,2.81-0.97,5.74-0.97,8.78v39.55h-9.13V94.58c0-2.12-0.12-4.29-0.34-6.5
		c-0.23-2.21-0.69-4.22-1.38-6.02c-0.69-1.8-1.74-3.25-3.16-4.36s-3.28-1.66-5.57-1.66c-2.29,0-4.31,0.62-6.05,1.87
		s-3.23,2.95-4.47,5.12c-1.24,2.17-2.18,4.66-2.82,7.47c-0.64,2.81-0.96,5.74-0.96,8.78v39.55h-9.13V87.53
		c0-1.47-0.02-3.06-0.07-4.77c-0.05-1.71-0.09-3.36-0.14-4.98c-0.05-1.61-0.09-3.09-0.14-4.43c-0.05-1.34-0.12-2.37-0.21-3.11h8.99
		c0.18,1.75,0.32,3.87,0.42,6.36c0.09,2.49,0.14,4.84,0.14,7.05h0.28C440.77,79.05,442.72,75.29,445.62,72.39z"/>
	<path class="st2" d="M532.29,70.24v44.26c0,2.12,0.12,4.27,0.35,6.43c0.23,2.17,0.74,4.15,1.52,5.95c0.78,1.8,1.87,3.27,3.25,4.43
		c1.38,1.15,3.27,1.73,5.67,1.73c2.3,0,4.36-0.62,6.15-1.87s3.32-2.95,4.56-5.12c1.24-2.17,2.21-4.65,2.9-7.47
		c0.69-2.81,1.04-5.74,1.04-8.78V70.24h9.13v51.31c0,1.48,0.02,3.07,0.07,4.77c0.04,1.71,0.09,3.37,0.14,4.98
		c0.05,1.61,0.09,3.11,0.14,4.5c0.04,1.38,0.11,2.4,0.21,3.04h-8.85c-0.19-1.75-0.32-3.87-0.42-6.36c-0.09-2.49-0.14-4.84-0.14-7.05
		h-0.28c-1.29,4.61-3.41,8.37-6.36,11.27c-2.95,2.9-6.64,4.36-11.06,4.36c-3.69,0-6.66-0.78-8.92-2.35
		c-2.26-1.57-3.99-3.62-5.19-6.15c-1.2-2.53-2-5.37-2.42-8.51c-0.42-3.13-0.62-6.31-0.62-9.54V70.24H532.29z"/>
	<path class="st2" d="M617.62,138.84V94.58c0-2.12-0.12-4.26-0.35-6.43c-0.23-2.17-0.74-4.15-1.52-5.95
		c-0.78-1.8-1.89-3.27-3.32-4.43c-1.43-1.15-3.3-1.73-5.6-1.73c-2.31,0-4.36,0.62-6.15,1.87s-3.32,2.95-4.56,5.12
		c-1.25,2.17-2.21,4.66-2.9,7.47c-0.69,2.81-1.04,5.74-1.04,8.78v39.55h-9.13V87.53c0-1.47-0.02-3.06-0.07-4.77
		c-0.05-1.71-0.09-3.36-0.14-4.98c-0.05-1.61-0.09-3.09-0.14-4.43c-0.05-1.34-0.12-2.37-0.21-3.11h8.85
		c0.18,1.75,0.32,3.87,0.42,6.36c0.09,2.49,0.14,4.84,0.14,7.05h0.28c1.29-4.61,3.41-8.37,6.36-11.27c2.95-2.9,6.64-4.36,11.06-4.36
		c3.69,0,6.66,0.78,8.92,2.35c2.26,1.57,3.99,3.62,5.19,6.15c1.2,2.54,2.01,5.39,2.42,8.57c0.41,3.18,0.62,6.34,0.62,9.47v44.26
		H617.62z"/>
	<path class="st2" d="M651.92,49.22c0,1.94-0.6,3.53-1.8,4.77c-1.2,1.24-2.63,1.87-4.29,1.87c-1.75,0-3.2-0.62-4.36-1.87
		c-1.15-1.24-1.73-2.84-1.73-4.77c0-1.84,0.58-3.41,1.73-4.7c1.15-1.29,2.6-1.94,4.36-1.94c1.75,0,3.2,0.65,4.36,1.94
		C651.34,45.81,651.92,47.38,651.92,49.22z M641.27,138.84v-68.6h9.13v68.6H641.27z"/>
	<path class="st2" d="M690.22,140.09c-1.48,0.37-3,0.55-4.56,0.55c-4.8,0-8.18-1.66-10.17-4.98c-1.98-3.32-2.97-7.74-2.97-13.28
		V77.71h-8.99v-7.47h8.85V51.3h8.99v18.95h12.17v7.47h-12.17v43.01c0,4.15,0.6,7.17,1.8,9.06c1.2,1.89,3,2.83,5.39,2.83
		c0.83,0,1.71-0.11,2.63-0.35c0.92-0.23,1.7-0.48,2.35-0.76l0.42,7.33C692.94,139.3,691.7,139.72,690.22,140.09z"/>
	<path class="st2" d="M710.63,183.43l10.71-41.97l-19.92-71.09h9.68l14.8,57.95h0.28l13.14-57.95h9.27l-29.25,113.19L710.63,183.43z
		"/>
</g>
<g>
	<path class="st3" d="M7.38,158.42v23.33H4.9v-23.33H0v-2.16h12.31v2.16H7.38z"/>
	<path class="st3" d="M28.58,181.75v-12.1h-9.76v12.1h-2.52v-25.49h2.52v11.16h9.76v-11.16h2.52v25.49H28.58z"/>
	<path class="st3" d="M38.02,181.75v-25.49h10.26v2.23h-7.81v8.93h7.31v2.16h-7.31v9.9h8.17v2.27H38.02z"/>
	<path class="st3" d="M77.65,168.97c0,1.99-0.19,3.81-0.58,5.45c-0.38,1.64-0.94,3.05-1.66,4.23c-0.72,1.18-1.6,2.09-2.63,2.74
		c-1.03,0.65-2.21,0.97-3.53,0.97c-1.32,0-2.5-0.32-3.55-0.97s-1.93-1.56-2.66-2.74c-0.73-1.18-1.29-2.59-1.67-4.23
		c-0.38-1.64-0.58-3.46-0.58-5.45c0-1.97,0.19-3.77,0.56-5.42c0.37-1.64,0.92-3.05,1.64-4.21c0.72-1.16,1.6-2.07,2.65-2.72
		s2.25-0.97,3.62-0.97c1.32,0,2.5,0.32,3.53,0.97c1.03,0.65,1.91,1.55,2.63,2.72c0.72,1.16,1.27,2.57,1.66,4.21
		C77.46,165.19,77.65,167,77.65,168.97z M75.02,168.97c0-1.54-0.12-2.98-0.36-4.32c-0.24-1.34-0.61-2.51-1.1-3.49
		c-0.49-0.98-1.1-1.76-1.82-2.34c-0.72-0.58-1.55-0.86-2.48-0.86c-0.98,0-1.84,0.29-2.57,0.86c-0.73,0.58-1.34,1.36-1.82,2.34
		c-0.48,0.98-0.84,2.15-1.08,3.49c-0.24,1.34-0.36,2.78-0.36,4.32c0,1.54,0.12,2.98,0.36,4.32c0.24,1.34,0.6,2.52,1.08,3.53
		c0.48,1.01,1.09,1.8,1.82,2.38c0.73,0.58,1.59,0.86,2.57,0.86c0.96,0,1.8-0.29,2.52-0.86c0.72-0.58,1.32-1.37,1.8-2.38
		c0.48-1.01,0.84-2.18,1.08-3.53C74.9,171.94,75.02,170.5,75.02,168.97z"/>
	<path class="st3" d="M94.83,181.75l-8.87-21.2h-0.11v21.2h-2.38v-25.49h3.13l8.82,21.2h0.11v-21.2h2.3v25.49H94.83z"/>
	<path class="st3" d="M104.76,181.75v-25.49h2.52v23.15h7.27v2.34H104.76z"/>
	<path class="st3" d="M118.69,181.75v-25.49h2.52v25.49H118.69z"/>
	<path class="st3" d="M139.47,181.75l-8.86-21.2h-0.11v21.2h-2.38v-25.49h3.13l8.82,21.2h0.11v-21.2h2.3v25.49H139.47z"/>
	<path class="st3" d="M149.4,181.75v-25.49h10.26v2.23h-7.81v8.93h7.31v2.16h-7.31v9.9h8.17v2.27H149.4z"/>
	<path class="st3" d="M183.63,181.75l-4.61-11.81h-3.28v11.81h-2.48v-25.49h6.12c0.84,0,1.65,0.11,2.43,0.34
		c0.78,0.23,1.48,0.61,2.09,1.13c0.61,0.53,1.1,1.22,1.48,2.09c0.37,0.86,0.56,1.92,0.56,3.17c0,1.08-0.14,2.01-0.41,2.79
		c-0.28,0.78-0.64,1.43-1.08,1.96c-0.44,0.53-0.94,0.94-1.48,1.22c-0.54,0.29-1.07,0.47-1.6,0.54l4.97,12.24H183.63z M183.49,163.12
		c0-0.91-0.13-1.67-0.38-2.28c-0.25-0.61-0.59-1.09-1.01-1.45s-0.9-0.61-1.44-0.75c-0.54-0.14-1.1-0.22-1.67-0.22h-3.24v9.54h3.35
		c1.37,0,2.44-0.42,3.22-1.27C183.1,165.84,183.49,164.65,183.49,163.12z"/>
	<path class="st3" d="M191.48,181.75v-25.49h10.26v2.23h-7.81v8.93h7.31v2.16h-7.31v9.9h8.17v2.27H191.48z"/>
	<path class="st3" d="M218.66,175.23c0,1.13-0.17,2.13-0.5,3.01s-0.8,1.62-1.39,2.23c-0.59,0.61-1.28,1.08-2.07,1.4
		s-1.63,0.49-2.52,0.49c-1.3,0-2.49-0.28-3.58-0.83c-1.09-0.55-1.97-1.28-2.65-2.2l1.55-1.76c0.55,0.79,1.25,1.4,2.09,1.84
		c0.84,0.43,1.69,0.65,2.56,0.65c1.15,0,2.12-0.41,2.9-1.22c0.78-0.82,1.17-1.98,1.17-3.49c0-0.72-0.12-1.36-0.36-1.91
		c-0.24-0.55-0.56-1.04-0.97-1.48c-0.41-0.43-0.87-0.82-1.39-1.15c-0.52-0.34-1.06-0.65-1.64-0.94c-0.7-0.34-1.36-0.71-1.98-1.13
		c-0.62-0.42-1.17-0.91-1.64-1.46c-0.47-0.55-0.85-1.21-1.13-1.96s-0.43-1.64-0.43-2.65c0-1.18,0.18-2.2,0.54-3.08
		c0.36-0.88,0.85-1.61,1.46-2.2c0.61-0.59,1.3-1.03,2.07-1.31c0.77-0.29,1.57-0.43,2.41-0.43c1.15,0,2.19,0.2,3.11,0.59
		c0.92,0.4,1.7,1.01,2.32,1.85l-1.55,1.76c-0.48-0.7-1.04-1.19-1.69-1.49c-0.65-0.3-1.36-0.45-2.12-0.45c-0.5,0-1,0.09-1.49,0.27
		c-0.49,0.18-0.93,0.46-1.31,0.85s-0.7,0.88-0.94,1.48c-0.24,0.6-0.36,1.31-0.36,2.12c0,0.72,0.11,1.34,0.32,1.87
		c0.22,0.53,0.51,1,0.88,1.4s0.8,0.77,1.3,1.08s1,0.6,1.53,0.86c0.67,0.34,1.34,0.72,2,1.15c0.66,0.43,1.25,0.94,1.78,1.51
		c0.53,0.58,0.95,1.25,1.26,2.02C218.51,173.3,218.66,174.2,218.66,175.23z"/>
	<path class="st3" d="M240.08,168.97c0,1.99-0.19,3.81-0.58,5.45c-0.38,1.64-0.94,3.05-1.66,4.23c-0.72,1.18-1.6,2.09-2.63,2.74
		c-1.03,0.65-2.21,0.97-3.53,0.97c-1.32,0-2.5-0.32-3.55-0.97s-1.93-1.56-2.66-2.74c-0.73-1.18-1.29-2.59-1.67-4.23
		c-0.38-1.64-0.58-3.46-0.58-5.45c0-1.97,0.19-3.77,0.56-5.42c0.37-1.64,0.92-3.05,1.64-4.21c0.72-1.16,1.6-2.07,2.65-2.72
		s2.25-0.97,3.62-0.97c1.32,0,2.5,0.32,3.53,0.97c1.03,0.65,1.91,1.55,2.63,2.72c0.72,1.16,1.27,2.57,1.66,4.21
		C239.89,165.19,240.08,167,240.08,168.97z M237.45,168.97c0-1.54-0.12-2.98-0.36-4.32c-0.24-1.34-0.61-2.51-1.1-3.49
		c-0.49-0.98-1.1-1.76-1.82-2.34c-0.72-0.58-1.55-0.86-2.48-0.86c-0.98,0-1.84,0.29-2.57,0.86c-0.73,0.58-1.34,1.36-1.82,2.34
		c-0.48,0.98-0.84,2.15-1.08,3.49c-0.24,1.34-0.36,2.78-0.36,4.32c0,1.54,0.12,2.98,0.36,4.32c0.24,1.34,0.6,2.52,1.08,3.53
		c0.48,1.01,1.08,1.8,1.82,2.38c0.73,0.58,1.59,0.86,2.57,0.86c0.96,0,1.8-0.29,2.52-0.86c0.72-0.58,1.32-1.37,1.8-2.38
		c0.48-1.01,0.84-2.18,1.08-3.53C237.33,171.94,237.45,170.5,237.45,168.97z"/>
	<path class="st3" d="M259.79,176.54c-0.25,1.16-0.66,2.18-1.22,3.04c-0.56,0.86-1.31,1.54-2.25,2.03
		c-0.94,0.49-2.09,0.74-3.46,0.74s-2.51-0.25-3.44-0.74s-1.67-1.17-2.23-2.03c-0.56-0.86-0.97-1.88-1.21-3.04
		c-0.24-1.16-0.36-2.41-0.36-3.73v-16.56h2.52v16.24c0,0.94,0.07,1.86,0.2,2.77c0.13,0.91,0.37,1.72,0.72,2.43
		c0.35,0.71,0.83,1.28,1.44,1.71c0.61,0.43,1.41,0.65,2.39,0.65c0.96,0,1.75-0.22,2.38-0.65c0.62-0.43,1.11-1,1.46-1.71
		c0.35-0.71,0.59-1.51,0.72-2.41s0.2-1.83,0.2-2.79v-16.24h2.52v16.56C260.17,174.14,260.04,175.38,259.79,176.54z"/>
	<path class="st3" d="M277.16,181.75l-4.61-11.81h-3.28v11.81h-2.48v-25.49h6.12c0.84,0,1.65,0.11,2.43,0.34
		c0.78,0.23,1.48,0.61,2.09,1.13c0.61,0.53,1.1,1.22,1.48,2.09c0.37,0.86,0.56,1.92,0.56,3.17c0,1.08-0.14,2.01-0.41,2.79
		c-0.28,0.78-0.64,1.43-1.08,1.96c-0.44,0.53-0.94,0.94-1.48,1.22c-0.54,0.29-1.07,0.47-1.6,0.54l4.97,12.24H277.16z M277.02,163.12
		c0-0.91-0.13-1.67-0.38-2.28c-0.25-0.61-0.59-1.09-1.01-1.45s-0.9-0.61-1.44-0.75c-0.54-0.14-1.1-0.22-1.67-0.22h-3.24v9.54h3.35
		c1.37,0,2.44-0.42,3.22-1.27C276.63,165.84,277.02,164.65,277.02,163.12z"/>
	<path class="st3" d="M296.13,181.46c-1.03,0.6-2.2,0.9-3.49,0.9c-1.39,0-2.63-0.34-3.71-1.03s-1.99-1.62-2.74-2.81
		s-1.31-2.6-1.71-4.23c-0.4-1.63-0.59-3.4-0.59-5.29c0-1.92,0.2-3.7,0.59-5.33c0.4-1.63,0.97-3.04,1.73-4.23
		c0.76-1.19,1.67-2.12,2.75-2.79s2.3-1.01,3.67-1.01c1.2,0,2.32,0.25,3.37,0.76c1.04,0.5,1.91,1.3,2.61,2.38l-1.62,1.66
		c-0.55-0.84-1.19-1.46-1.93-1.87c-0.73-0.41-1.51-0.61-2.32-0.61c-1.06,0-1.97,0.29-2.75,0.86c-0.78,0.58-1.43,1.37-1.94,2.38
		c-0.52,1.01-0.9,2.18-1.15,3.53c-0.25,1.34-0.38,2.77-0.38,4.28c0,1.51,0.13,2.93,0.4,4.27c0.26,1.33,0.65,2.5,1.17,3.51
		c0.52,1.01,1.16,1.81,1.94,2.39c0.78,0.59,1.7,0.88,2.75,0.88c0.91,0,1.74-0.26,2.48-0.77s1.36-1.19,1.84-2.03l1.58,1.62
		C298.02,179.99,297.16,180.86,296.13,181.46z"/>
	<path class="st3" d="M303.33,181.75v-25.49h10.26v2.23h-7.81v8.93h7.31v2.16h-7.31v9.9h8.17v2.27H303.33z"/>
	<path class="st3" d="M329.68,158.53v9.14h7.16v2.16h-7.16v11.92h-2.48v-25.49h10.19v2.27H329.68z"/>
	<path class="st3" d="M358.3,168.97c0,1.99-0.19,3.81-0.58,5.45c-0.38,1.64-0.94,3.05-1.66,4.23c-0.72,1.18-1.6,2.09-2.63,2.74
		c-1.03,0.65-2.21,0.97-3.53,0.97c-1.32,0-2.5-0.32-3.55-0.97s-1.93-1.56-2.66-2.74c-0.73-1.18-1.29-2.59-1.67-4.23
		c-0.38-1.64-0.58-3.46-0.58-5.45c0-1.97,0.19-3.77,0.56-5.42c0.37-1.64,0.92-3.05,1.64-4.21c0.72-1.16,1.6-2.07,2.65-2.72
		s2.25-0.97,3.62-0.97c1.32,0,2.5,0.32,3.53,0.97c1.03,0.65,1.91,1.55,2.63,2.72c0.72,1.16,1.27,2.57,1.66,4.21
		C358.11,165.19,358.3,167,358.3,168.97z M355.68,168.97c0-1.54-0.12-2.98-0.36-4.32c-0.24-1.34-0.61-2.51-1.1-3.49
		c-0.49-0.98-1.1-1.76-1.82-2.34c-0.72-0.58-1.55-0.86-2.48-0.86c-0.98,0-1.84,0.29-2.57,0.86c-0.73,0.58-1.34,1.36-1.82,2.34
		c-0.48,0.98-0.84,2.15-1.08,3.49c-0.24,1.34-0.36,2.78-0.36,4.32c0,1.54,0.12,2.98,0.36,4.32c0.24,1.34,0.6,2.52,1.08,3.53
		c0.48,1.01,1.08,1.8,1.82,2.38c0.73,0.58,1.59,0.86,2.57,0.86c0.96,0,1.8-0.29,2.52-0.86c0.72-0.58,1.32-1.37,1.8-2.38
		c0.48-1.01,0.84-2.18,1.08-3.53C355.56,171.94,355.68,170.5,355.68,168.97z"/>
	<path class="st3" d="M374.5,181.75l-4.61-11.81h-3.28v11.81h-2.48v-25.49h6.12c0.84,0,1.65,0.11,2.43,0.34
		c0.78,0.23,1.48,0.61,2.09,1.13c0.61,0.53,1.1,1.22,1.48,2.09c0.37,0.86,0.56,1.92,0.56,3.17c0,1.08-0.14,2.01-0.41,2.79
		c-0.28,0.78-0.64,1.43-1.08,1.96c-0.44,0.53-0.94,0.94-1.48,1.22c-0.54,0.29-1.07,0.47-1.6,0.54l4.97,12.24H374.5z M374.36,163.12
		c0-0.91-0.13-1.67-0.38-2.28c-0.25-0.61-0.59-1.09-1.01-1.45s-0.9-0.61-1.44-0.75c-0.54-0.14-1.1-0.22-1.67-0.22h-3.24v9.54h3.35
		c1.37,0,2.44-0.42,3.22-1.27C373.97,165.84,374.36,164.65,374.36,163.12z"/>
	<path class="st3" d="M402.58,163.17c0,1.18-0.17,2.21-0.52,3.11s-0.81,1.65-1.39,2.25c-0.58,0.6-1.24,1.06-2,1.37
		c-0.76,0.31-1.54,0.47-2.36,0.47h-3.74v11.38h-2.48v-25.49h6.01c0.74,0,1.5,0.11,2.27,0.32c0.77,0.22,1.46,0.59,2.09,1.13
		c0.62,0.54,1.13,1.25,1.53,2.14C402.39,160.75,402.58,161.85,402.58,163.17z M400.1,163.19c0-0.84-0.11-1.56-0.32-2.17
		c-0.22-0.61-0.52-1.11-0.9-1.49c-0.38-0.38-0.82-0.66-1.31-0.84c-0.49-0.18-1.03-0.27-1.6-0.27h-3.38v9.79H396
		c1.13,0,2.09-0.41,2.9-1.24C399.7,166.15,400.1,164.89,400.1,163.19z"/>
	<path class="st3" d="M420.22,181.75l-2.3-3.49c-0.24,0.55-0.53,1.08-0.86,1.58c-0.34,0.5-0.73,0.94-1.19,1.31
		c-0.46,0.37-0.98,0.67-1.57,0.88c-0.59,0.22-1.25,0.32-2,0.32c-1.78,0-3.21-0.64-4.3-1.91c-1.09-1.27-1.64-3.06-1.64-5.36
		c0-0.91,0.11-1.74,0.34-2.48c0.23-0.74,0.53-1.42,0.92-2.03c0.38-0.61,0.84-1.16,1.37-1.66c0.53-0.49,1.1-0.94,1.73-1.35
		c-0.82-1.22-1.37-2.29-1.66-3.19s-0.43-1.84-0.43-2.83c0-1.85,0.48-3.31,1.44-4.37s2.18-1.6,3.67-1.6c0.72,0,1.37,0.13,1.96,0.4
		s1.09,0.64,1.51,1.12c0.42,0.48,0.75,1.06,0.99,1.75s0.36,1.43,0.36,2.25c0,0.84-0.13,1.6-0.4,2.27c-0.26,0.67-0.62,1.29-1.06,1.85
		c-0.44,0.56-0.97,1.07-1.57,1.53c-0.6,0.46-1.22,0.9-1.87,1.33l4.07,6.08l2.23-6.08h2.45l-3.28,7.92l3.96,5.76H420.22z
		 M411.8,169.22c-0.41,0.29-0.8,0.61-1.19,0.95c-0.38,0.35-0.72,0.76-1.01,1.22c-0.29,0.47-0.52,0.99-0.7,1.57
		c-0.18,0.58-0.27,1.22-0.27,1.94c0,1.66,0.37,2.95,1.1,3.89c0.73,0.94,1.67,1.4,2.83,1.4c0.5,0,0.97-0.11,1.39-0.32
		c0.42-0.22,0.8-0.5,1.15-0.85c0.35-0.35,0.65-0.75,0.9-1.21c0.25-0.46,0.46-0.92,0.63-1.4L411.8,169.22z M416.26,161.26
		c0-1.15-0.22-2.06-0.67-2.72c-0.44-0.66-1.07-0.99-1.89-0.99c-0.82,0-1.48,0.37-2,1.1c-0.52,0.73-0.77,1.67-0.77,2.83
		c0,0.94,0.13,1.78,0.4,2.52c0.26,0.74,0.71,1.6,1.33,2.56c1.01-0.65,1.86-1.39,2.56-2.21
		C415.91,163.51,416.26,162.49,416.26,161.26z"/>
	<path class="st3" d="M431.99,158.42v23.33h-2.48v-23.33h-4.9v-2.16h12.31v2.16H431.99z"/>
	<path class="st3" d="M463.39,169.04c0,2.09-0.22,3.92-0.65,5.51c-0.43,1.58-1.06,2.91-1.87,3.98c-0.82,1.07-1.79,1.87-2.93,2.41
		s-2.41,0.81-3.8,0.81h-5.47v-25.49h5.51c1.39,0,2.66,0.27,3.8,0.81c1.14,0.54,2.11,1.35,2.92,2.43s1.42,2.42,1.85,4.01
		C463.17,165.11,463.39,166.95,463.39,169.04z M460.9,169.04c0-1.81-0.17-3.38-0.52-4.71s-0.83-2.44-1.44-3.31
		c-0.61-0.87-1.33-1.52-2.16-1.95c-0.83-0.43-1.72-0.65-2.68-0.65h-2.95v21.17h2.95c0.96,0,1.85-0.22,2.68-0.65
		c0.83-0.43,1.55-1.08,2.16-1.95c0.61-0.87,1.09-1.96,1.44-3.29C460.73,172.37,460.9,170.82,460.9,169.04z"/>
	<path class="st3" d="M469.22,181.75v-25.49h10.26v2.23h-7.81v8.93h7.31v2.16h-7.31v9.9h8.17v2.27H469.22z"/>
	<path class="st3" d="M496.47,181.46c-1.03,0.6-2.2,0.9-3.49,0.9c-1.39,0-2.63-0.34-3.71-1.03s-1.99-1.62-2.74-2.81
		s-1.31-2.6-1.71-4.23c-0.4-1.63-0.59-3.4-0.59-5.29c0-1.92,0.2-3.7,0.59-5.33c0.4-1.63,0.97-3.04,1.73-4.23
		c0.76-1.19,1.67-2.12,2.75-2.79s2.3-1.01,3.67-1.01c1.2,0,2.32,0.25,3.37,0.76c1.04,0.5,1.91,1.3,2.61,2.38l-1.62,1.66
		c-0.55-0.84-1.19-1.46-1.93-1.87c-0.73-0.41-1.51-0.61-2.32-0.61c-1.06,0-1.97,0.29-2.75,0.86c-0.78,0.58-1.43,1.37-1.94,2.38
		c-0.52,1.01-0.9,2.18-1.15,3.53c-0.25,1.34-0.38,2.77-0.38,4.28c0,1.51,0.13,2.93,0.4,4.27c0.26,1.33,0.65,2.5,1.17,3.51
		c0.52,1.01,1.16,1.81,1.94,2.39c0.78,0.59,1.7,0.88,2.75,0.88c0.91,0,1.74-0.26,2.48-0.77s1.36-1.19,1.84-2.03l1.58,1.62
		C498.35,179.99,497.5,180.86,496.47,181.46z"/>
	<path class="st3" d="M503.67,181.75v-25.49h2.52v25.49H503.67z"/>
	<path class="st3" d="M524.15,175.23c0,1.13-0.17,2.13-0.5,3.01s-0.8,1.62-1.39,2.23c-0.59,0.61-1.28,1.08-2.07,1.4
		s-1.63,0.49-2.52,0.49c-1.3,0-2.49-0.28-3.58-0.83c-1.09-0.55-1.97-1.28-2.65-2.2l1.55-1.76c0.55,0.79,1.25,1.4,2.09,1.84
		c0.84,0.43,1.69,0.65,2.56,0.65c1.15,0,2.12-0.41,2.9-1.22c0.78-0.82,1.17-1.98,1.17-3.49c0-0.72-0.12-1.36-0.36-1.91
		c-0.24-0.55-0.56-1.04-0.97-1.48c-0.41-0.43-0.87-0.82-1.39-1.15c-0.52-0.34-1.06-0.65-1.64-0.94c-0.7-0.34-1.36-0.71-1.98-1.13
		c-0.62-0.42-1.17-0.91-1.64-1.46c-0.47-0.55-0.85-1.21-1.13-1.96s-0.43-1.64-0.43-2.65c0-1.18,0.18-2.2,0.54-3.08
		c0.36-0.88,0.85-1.61,1.46-2.2c0.61-0.59,1.3-1.03,2.07-1.31c0.77-0.29,1.57-0.43,2.41-0.43c1.15,0,2.19,0.2,3.11,0.59
		c0.92,0.4,1.7,1.01,2.32,1.85l-1.55,1.76c-0.48-0.7-1.04-1.19-1.69-1.49c-0.65-0.3-1.36-0.45-2.12-0.45c-0.5,0-1,0.09-1.49,0.27
		c-0.49,0.18-0.93,0.46-1.31,0.85s-0.7,0.88-0.94,1.48c-0.24,0.6-0.36,1.31-0.36,2.12c0,0.72,0.11,1.34,0.32,1.87
		c0.22,0.53,0.51,1,0.88,1.4s0.8,0.77,1.3,1.08s1,0.6,1.53,0.86c0.67,0.34,1.34,0.72,2,1.15c0.66,0.43,1.25,0.94,1.78,1.51
		c0.53,0.58,0.95,1.25,1.26,2.02C524,173.3,524.15,174.2,524.15,175.23z"/>
	<path class="st3" d="M529.8,181.75v-25.49h2.52v25.49H529.8z"/>
	<path class="st3" d="M555,168.97c0,1.99-0.19,3.81-0.58,5.45c-0.38,1.64-0.94,3.05-1.66,4.23c-0.72,1.18-1.6,2.09-2.63,2.74
		c-1.03,0.65-2.21,0.97-3.53,0.97c-1.32,0-2.5-0.32-3.55-0.97s-1.93-1.56-2.66-2.74c-0.73-1.18-1.29-2.59-1.67-4.23
		c-0.38-1.64-0.58-3.46-0.58-5.45c0-1.97,0.19-3.77,0.56-5.42c0.37-1.64,0.92-3.05,1.64-4.21c0.72-1.16,1.6-2.07,2.65-2.72
		s2.25-0.97,3.62-0.97c1.32,0,2.5,0.32,3.53,0.97c1.03,0.65,1.91,1.55,2.63,2.72c0.72,1.16,1.27,2.57,1.66,4.21
		C554.81,165.19,555,167,555,168.97z M552.38,168.97c0-1.54-0.12-2.98-0.36-4.32c-0.24-1.34-0.61-2.51-1.1-3.49
		c-0.49-0.98-1.1-1.76-1.82-2.34c-0.72-0.58-1.55-0.86-2.48-0.86c-0.98,0-1.84,0.29-2.57,0.86c-0.73,0.58-1.34,1.36-1.82,2.34
		c-0.48,0.98-0.84,2.15-1.08,3.49c-0.24,1.34-0.36,2.78-0.36,4.32c0,1.54,0.12,2.98,0.36,4.32c0.24,1.34,0.6,2.52,1.08,3.53
		c0.48,1.01,1.08,1.8,1.82,2.38c0.73,0.58,1.59,0.86,2.57,0.86c0.96,0,1.8-0.29,2.52-0.86c0.72-0.58,1.32-1.37,1.8-2.38
		c0.48-1.01,0.84-2.18,1.08-3.53C552.26,171.94,552.38,170.5,552.38,168.97z"/>
	<path class="st3" d="M572.18,181.75l-8.86-21.2h-0.11v21.2h-2.38v-25.49h3.13l8.82,21.2h0.11v-21.2h2.3v25.49H572.18z"/>
	<path class="st3" d="M607.24,181.75v-22.14h-0.11l-6.25,22.14h-2.33l-6.21-22.14h-0.11v22.14h-2.38v-25.49h3.74l6.08,21.53h0.14
		l6.01-21.53h3.89v25.49H607.24z"/>
	<path class="st3" d="M627.54,181.75l-1.55-6.37h-7.85l-1.62,6.37h-2.56l6.48-25.49h3.42l6.3,25.49H627.54z M622.18,158.53h-0.14
		l-3.53,14.83h7.13L622.18,158.53z"/>
	<path class="st3" d="M645.43,181.75l-8.5-13.07h-0.04v13.07h-2.48v-25.49h2.48v11.45h0.04l7.99-11.45h2.92l-8.57,11.77l9.18,13.72
		H645.43z"/>
	<path class="st3" d="M652.85,181.75v-25.49h10.26v2.23h-7.81v8.93h7.31v2.16h-7.31v9.9h8.17v2.27H652.85z"/>
	<path class="st3" d="M679.35,181.75l-4.61-11.81h-3.28v11.81h-2.48v-25.49h6.12c0.84,0,1.65,0.11,2.43,0.34
		c0.78,0.23,1.48,0.61,2.09,1.13c0.61,0.53,1.1,1.22,1.48,2.09c0.37,0.86,0.56,1.92,0.56,3.17c0,1.08-0.14,2.01-0.41,2.79
		c-0.28,0.78-0.64,1.43-1.08,1.96c-0.44,0.53-0.94,0.94-1.48,1.22c-0.54,0.29-1.07,0.47-1.6,0.54l4.97,12.24H679.35z M679.2,163.12
		c0-0.91-0.13-1.67-0.38-2.28c-0.25-0.61-0.59-1.09-1.01-1.45s-0.9-0.61-1.44-0.75c-0.54-0.14-1.1-0.22-1.67-0.22h-3.24v9.54h3.35
		c1.37,0,2.44-0.42,3.22-1.27C678.81,165.84,679.2,164.65,679.2,163.12z"/>
	<path class="st3" d="M698.24,175.23c0,1.13-0.17,2.13-0.5,3.01s-0.8,1.62-1.39,2.23c-0.59,0.61-1.28,1.08-2.07,1.4
		s-1.63,0.49-2.52,0.49c-1.3,0-2.49-0.28-3.58-0.83c-1.09-0.55-1.97-1.28-2.65-2.2l1.55-1.76c0.55,0.79,1.25,1.4,2.09,1.84
		c0.84,0.43,1.69,0.65,2.56,0.65c1.15,0,2.12-0.41,2.9-1.22c0.78-0.82,1.17-1.98,1.17-3.49c0-0.72-0.12-1.36-0.36-1.91
		c-0.24-0.55-0.56-1.04-0.97-1.48c-0.41-0.43-0.87-0.82-1.39-1.15c-0.52-0.34-1.06-0.65-1.64-0.94c-0.7-0.34-1.36-0.71-1.98-1.13
		c-0.62-0.42-1.17-0.91-1.64-1.46c-0.47-0.55-0.85-1.21-1.13-1.96s-0.43-1.64-0.43-2.65c0-1.18,0.18-2.2,0.54-3.08
		c0.36-0.88,0.85-1.61,1.46-2.2c0.61-0.59,1.3-1.03,2.07-1.31c0.77-0.29,1.57-0.43,2.41-0.43c1.15,0,2.19,0.2,3.11,0.59
		c0.92,0.4,1.7,1.01,2.32,1.85l-1.55,1.76c-0.48-0.7-1.04-1.19-1.69-1.49c-0.65-0.3-1.36-0.45-2.12-0.45c-0.5,0-1,0.09-1.49,0.27
		c-0.49,0.18-0.93,0.46-1.31,0.85s-0.7,0.88-0.94,1.48c-0.24,0.6-0.36,1.31-0.36,2.12c0,0.72,0.11,1.34,0.32,1.87
		c0.22,0.53,0.51,1,0.88,1.4s0.8,0.77,1.3,1.08s1,0.6,1.53,0.86c0.67,0.34,1.34,0.72,2,1.15c0.66,0.43,1.25,0.94,1.78,1.51
		c0.53,0.58,0.95,1.25,1.26,2.02C698.09,173.3,698.24,174.2,698.24,175.23z"/>
</g>
</svg>
